<?xml version="1.0" standalone="no"?><!DOCTYPE svg PUBLIC "-//W3C//DTD SVG 1.1//EN" "http://www.w3.org/Graphics/SVG/1.1/DTD/svg11.dtd"><svg t="1769395566877" class="icon" viewBox="0 0 1024 1024" version="1.1" xmlns="http://www.w3.org/2000/svg" p-id="18137" xmlns:xlink="http://www.w3.org/1999/xlink" width="1024" height="1024"><path d="M512 401.066667c110.933333 0 201.386667-90.453333 201.386667-199.68C713.386667 88.746667 622.933333 0 512 0c-110.933333 0-201.386667 90.453333-201.386667 199.68 0 110.933333 90.453333 201.386667 201.386667 201.386667zM450.56 477.866667c0 18.773333 15.36 42.666667 23.893333 52.906666 8.533333 8.533333 25.6 8.533333 37.546667 8.533334 11.946667 0 27.306667 0 37.546667-8.533334 8.533333-8.533333 23.893333-34.133333 23.893333-52.906666 0-22.186667-37.546667-23.893333-61.44-23.893334-23.893333-1.706667-61.44 1.706667-61.44 23.893334z m0 0" p-id="18138"></path><path d="M926.72 590.506667c-11.946667-49.493333-52.906667-87.04-102.4-95.573334l-179.2-25.6h-1.706667l-88.746666 201.386667-10.24-98.986667c0-3.413333-3.413333-5.12-6.826667-5.12h-52.906667c-3.413333 0-5.12 1.706667-6.826666 5.12l-10.24 98.986667-88.746667-201.386667h-1.706667L197.973333 494.933333c-51.2 6.826667-92.16 44.373333-102.4 95.573334L0 1024h170.666667l54.613333-230.4 15.36 230.4H785.066667l15.36-230.4L853.333333 1024h170.666667l-97.28-433.493333z m-307.2 157.013333l92.16-61.44 30.72 61.44h-122.88z m0 0" p-id="18139"></path></svg>