<?xml version="1.0" standalone="no"?><!DOCTYPE svg PUBLIC "-//W3C//DTD SVG 1.1//EN" "http://www.w3.org/Graphics/SVG/1.1/DTD/svg11.dtd"><svg t="1769395500167" class="icon" viewBox="0 0 1025 1024" version="1.1" xmlns="http://www.w3.org/2000/svg" p-id="13537" xmlns:xlink="http://www.w3.org/1999/xlink" width="1025" height="1024"><path d="M395.605333 238.762667h100.864c26.026667 0 47.061333 21.077333 47.061334 47.104v67.498666a149.162667 149.162667 0 1 0-147.925334-114.602666z m471.381334 114.688h0.085333a102.570667 102.570667 0 1 0 0.170667-205.141334 102.570667 102.570667 0 0 0-0.256 205.141334z m-344.917334 385.408V303.786667c0-24.021333-19.456-43.52-43.477333-43.562667H43.434667a43.562667 43.562667 0 0 0-43.434667 43.52v435.157333a43.52 43.52 0 0 0 43.477333 43.477334h435.2a43.52 43.52 0 0 0 43.434667-43.52z m-148.992-319.573334H287.914667v242.901334H233.728V419.242667H148.992V372.096h224.085333z m609.578667-9.856H543.573333v347.306667c0 26.026667-21.12 47.104-47.104 47.104H316.501333a261.205333 261.205333 0 0 0 339.029334 146.645333 261.205333 261.205333 0 0 0 139.093333-129.450666 157.184 157.184 0 0 0 71.850667 17.28h1.152a157.909333 157.909333 0 0 0 157.909333-157.909334v-228.096c0-23.68-19.2-42.88-42.922667-42.88z" p-id="13538"></path></svg>