<?xml version="1.0" standalone="no"?><!DOCTYPE svg PUBLIC "-//W3C//DTD SVG 1.1//EN" "http://www.w3.org/Graphics/SVG/1.1/DTD/svg11.dtd"><svg t="1768806596882" class="icon" viewBox="0 0 1024 1024" version="1.1" xmlns="http://www.w3.org/2000/svg" p-id="10718" xmlns:xlink="http://www.w3.org/1999/xlink" width="200" height="200"><path d="M957.941966 799.271808c-65.357747-54.766892-180.520545-128.528085-225.510135-137.962957l-3.190615-0.672818-3.226363 0.463973c-25.53809 3.715924-41.005743 20.576625-54.657014 35.431668-17.898902 19.519233-29.651007 30.372743-54.55993 26.932267-7.589893-1.082604-40.094353-14.122394-143.395921-135.299157l-44.042076-52.842138c-103.025743-126.224023-109.552976-160.452672-109.064167-167.96279 1.601516-24.780606 14.898317-33.415097 38.23658-46.536167 17.72844-9.960559 37.822277-21.253582 46.811239-44.824396l1.142059-2.976126-0.023707-3.207548c-0.232551-44.843211-50.612207-169.912381-91.317665-241.827089-4.473785-10.468182-17.306612-27.988154-52.757094-27.988154-71.903042 0-197.790657 71.016488-211.295549 155.158939-19.140303 119.257653 62.6804 302.412271 218.823729 489.991756l57.676038 69.214406c156.150479 187.535458 323.183818 303.242757 446.878379 309.530289l5.335502 0.104234h0.023707c81.314208 0 170.522357-95.112611 190.989104-159.224066 13.04694-40.81496-3.41564-59.282822-12.876101-65.504126z m-21.377007 55.134157c-16.96343 53.183814-93.951362 134.644402-156.759703 134.627093l-3.45929-0.085043c-87.767311-4.430887-244.424284-84.712915-420.875563-296.63161l-57.675285-69.2272c-176.444506-211.925092-224.814364-377.864539-211.222547-462.508968 10.168274-63.524432 118.639775-125.588083 175.814962-125.588083 5.060054 0 17.135397 0.635188 20.490453 8.189333 44.713765 79.247966 84.858542 187.736776 87.559596 223.493188-4.876798 9.447667-14.794459 15.400296-29.84066 23.864324-22.434023 12.619467-53.203382 29.900867-56.118172 74.603343-1.307629 19.818389 9.918414 61.899209 121.787492 198.059709l11.269317 13.548542 0.085043-0.067733 8.909187 10.706754-0.170462 0.146379 11.525574 13.677236c113.683955 134.700094 153.656764 154.054133 173.828871 156.883127 45.858081 6.58744 68.479876-18.6387 86.423181-38.218517 11.586534-12.619091 19.585085-20.851322 30.090521-23.552751 35.285665 9.900351 136.038579 70.57133 207.854697 130.612765 5.61622 3.775003 3.923264 16.669166 0.482788 27.468112z" fill="#1565c0" p-id="10719"></path></svg>